#!OML:ASF F:\VICON\USERDATA\INSTALL\rory3\rory3.ASF
:FULLY-SPECIFIED
:DEGREES
1864
root 0.449141 15.3281 -1.49448 -0.732699 -0.792035 0.0590654
lowerback 14.8297 -0.157581 -2.37372
upperback 3.1385 -0.669031 -1.66524
thorax -4.97906 -0.305932 -0.285094
lowerneck -6.15097 -8.20944 -15.3188
upperneck -13.3089 -8.91159 21.2563
head -0.975111 -4.38474 8.98716
rclavicle 9.93923e-015 1.59028e-015
rhumerus 61.8632 13.6784 -464.157
rradius 26.364
rwrist 354.461
rhand -15.414 11.7231
rfingers 7.12502
rthumb 10.7655 -17.981
lclavicle 9.93923e-015 1.59028e-015
lhumerus 64.5809 -5.22248 120.976
lradius 16.8618
lwrist 23.2632
lhand -13.5626 28.5174
lfingers 7.12502
lthumb 12.5508 58.1204
rfemur -21.7784 6.66536 14.8357
rtibia 44.6242
rfoot -17.1566 -9.11472
rtoes -18.7698
lfemur -20.7672 -2.25789 -16.6178
ltibia 42.0771
lfoot -15.0196 -0.315881
ltoes -12.9812
1865
root 0.450107 15.3295 -1.49497 -0.752913 -0.825068 0.0223239
lowerback 14.754 -0.182534 -2.36146
upperback 3.13636 -0.695615 -1.6338
thorax -4.9395 -0.319393 -0.254213
lowerneck -6.13661 -8.15866 -15.2696
upperneck -13.5639 -8.82014 21.1486
head -1.07771 -4.34307 8.961
rclavicle 1.43125e-014 -1.98785e-014
rhumerus 62.1239 13.9025 -463.819
rradius 27.0547
rwrist 354.274
rhand -15.5081 11.6196
rfingers 7.12502
rthumb 10.6747 -18.0893
lclavicle 1.43125e-014 -1.98785e-014
lhumerus 64.8077 -5.99583 119.23
lradius 17.723
lwrist 25.009
lhand -13.48 28.3497
lfingers 7.12502
lthumb 12.6305 57.9478
rfemur -21.7469 6.71833 14.8775
rtibia 44.5916
rfoot -17.1626 -9.13314
rtoes -18.6381
lfemur -20.7294 -2.24396 -16.5759
ltibia 42.058
lfoot -14.9968 -0.347943
ltoes -12.5327
1866
root 0.451219 15.3295 -1.49552 -0.788131 -0.865506 0.0225352
lowerback 14.7048 -0.197621 -2.3882
upperback 3.15107 -0.716042 -1.60932
thorax -4.89621 -0.329489 -0.209769
lowerneck -6.18945 -8.13093 -15.2447
upperneck -13.8022 -8.75234 21.0644
head -1.15721 -4.30899 8.94161
rclavicle 1.39149e-015 2.46493e-014
rhumerus 62.4147 14.1563 -463.222
rradius 27.6869
rwrist 353.993
rhand -15.6482 11.8714
rfingers 7.12502
rthumb 10.5396 -17.8443
lclavicle 1.39149e-015 2.46493e-014
lhumerus 65.0443 -6.9156 116.97
lradius 18.7908
lwrist 27.2383
lhand -13.5271 28.405
lfingers 7.12502
lthumb 12.585 58.0059
rfemur -21.6974 6.74581 14.8783
rtibia 44.5648
rfoot -17.1939 -9.08335
rtoes -18.708
lfemur -20.6891 -2.21605 -16.5855
ltibia 42.0629
lfoot -15.0052 -0.321549
ltoes -12.6046
1867
root 0.452097 15.3283 -1.49722 -0.817138 -0.910805 -0.0183967
lowerback 14.6977 -0.220076 -2.36912
upperback 3.13987 -0.740867 -1.57355
thorax -4.90366 -0.34169 -0.178292
lowerneck -6.3469 -8.22901 -15.479
upperneck -13.8109 -8.8432 21.33
head -1.08486 -4.34365 9.05689
rclavicle -2.78299e-015 3.18055e-015
rhumerus 62.6458 14.3721 -462.711
rradius 28.3616
rwrist 353.731
rhand -15.6829 12.24
rfingers 7.12502
rthumb 10.506 -17.4774
lclavicle -2.78299e-015 3.18055e-015
lhumerus 65.2599 -7.86505 114.369
lradius 19.9774
lwrist 29.7821
lhand -13.8608 28.5402
lfingers 7.12502
lthumb 12.2633 58.1607
rfemur -21.6681 6.79151 14.9223
rtibia 44.5458
rfoot -17.1927 -9.05559
rtoes -18.5753
lfemur -20.6583 -2.18992 -16.5454
ltibia 42.0656
lfoot -15.058 -0.274793
ltoes -12.9568
1868
root 0.452387 15.3273 -1.49906 -0.836969 -0.970512 -0.0557289
lowerback 14.6765 -0.235914 -2.36509
upperback 3.14676 -0.758298 -1.5385
thorax -4.88415 -0.350423 -0.140558
lowerneck -6.6522 -8.33688 -15.7088
upperneck -13.6989 -8.94299 21.587
head -0.952555 -4.37294 9.15709
rclavicle 1.05356e-014 1.98785e-014
rhumerus 62.8664 14.5522 -462.398
rradius 29.1081
rwrist 353.656
rhand -15.5355 12.3284
rfingers 7.12502
rthumb 10.6482 -17.3818
lclavicle 1.05356e-014 1.98785e-014
lhumerus 65.4805 -8.56375 112.52
lradius 21.1005
lwrist 31.5853
lhand -14.1066 28.6882
lfingers 7.12502
lthumb 12.0263 58.3227
rfemur -21.6554 6.84543 14.9679
rtibia 44.5345
rfoot -17.1796 -9.08067
rtoes -18.4325
lfemur -20.6381 -2.14288 -16.5013
ltibia 42.0721
lfoot -15.0622 -0.265385
ltoes -13.1773
1869
root 0.453638 15.3262 -1.50122 -0.8686 -0.976948 0.0167659
lowerback 14.6721 -0.251208 -2.44719
upperback 3.14409 -0.792601 -1.56973
thorax -4.88336 -0.366384 -0.120748
lowerneck -6.89629 -8.35723 -15.654
upperneck -13.7266 -8.93868 21.5721
head -0.925181 -4.36056 9.13435
rclavicle 2.38542e-014 9.54166e-015
rhumerus 63.1669 14.7421 -461.814
rradius 29.8141
rwrist 353.348
rhand -15.4501 12.0296
rfingers 7.12502
rthumb 10.7306 -17.6763
lclavicle 2.38542e-014 9.54166e-015
lhumerus 65.4994 -9.17582 110.831
lradius 22.5528
lwrist 33.1648
lhand -14.1309 29.1495
lfingers 7.12502
lthumb 12.0029 58.7853
rfemur -21.6259 6.8392 14.8797
rtibia 44.5383
rfoot -17.1944 -9.0515
rtoes -18.3455
lfemur -20.5979 -2.18243 -16.5867
ltibia 42.0674
lfoot -15.0249 -0.248309
ltoes -13.227
1870
root 0.454707 15.3256 -1.50355 -0.888084 -0.990974 0.0191074
lowerback 14.6518 -0.248588 -2.43265
upperback 3.10104 -0.789843 -1.61155
thorax -4.91866 -0.364848 -0.173536
lowerneck -6.85451 -8.30209 -15.3915
upperneck -14.0807 -8.84764 21.3589
head -1.07979 -4.32875 9.04156
rclavicle 1.13307e-014 -1.66979e-014
rhumerus 63.4002 14.8259 -461.179
rradius 30.4732
rwrist 352.95
rhand -15.4716 11.8069
rfingers 7.12502
rthumb 10.7099 -17.9002
lclavicle 1.13307e-014 -1.66979e-014
lhumerus 65.2672 -9.87539 108.88
lradius 24.4682
lwrist 35.0405
lhand -14.2798 29.8912
lfingers 7.12502
lthumb 11.8593 59.5353
rfemur -21.618 6.84929 14.8688
rtibia 44.5377
rfoot -17.211 -9.02105
rtoes -18.2764
lfemur -20.5708 -2.21227 -16.5963
ltibia 42.0678
lfoot -15.0093 -0.202039
ltoes -13.1919
